<svg xmlns="http://www.w3.org/2000/svg" width="1012" height="328" viewBox="0 0 1012 328">
<g>
<path d="M 1012.00 328.00 L 0.00 328.00 L 363.75 327.82 C562.13,327.72 722.53,327.51 722.53,327.34 C722.53,327.34 722.52,327.33 722.50,327.33 C704.14,326.21 684.69,322.60 671.06,317.79 C662.87,314.90 651.00,309.43 651.00,308.55 C651.00,307.79 660.04,282.62 660.47,282.20 C660.70,281.97 662.17,282.70 663.74,283.81 C671.54,289.37 691.89,295.66 711.13,298.45 C725.18,300.50 750.23,300.48 761.07,298.43 C780.74,294.70 792.91,284.90 793.16,272.61 C793.48,256.71 779.72,248.75 740.15,241.93 C706.36,236.10 698.45,233.94 684.58,226.72 C665.02,216.55 655.65,199.44 658.89,179.83 C662.19,159.85 679.18,143.60 704.63,136.09 C726.60,129.61 760.48,129.24 789.50,135.17 C800.75,137.46 814.65,141.62 815.45,142.93 C815.95,143.72 807.84,167.49 806.69,168.65 C806.41,168.93 801.30,167.59 795.34,165.67 C769.71,157.43 733.98,155.70 713.00,161.69 C696.48,166.40 688.00,174.72 688.00,186.21 C688.01,192.62 690.26,196.73 696.07,200.94 C703.90,206.61 713.45,209.36 743.01,214.48 C768.97,218.97 779.93,221.97 792.67,228.08 C816.87,239.69 826.98,258.51 821.49,281.77 C819.29,291.11 815.48,297.74 808.11,305.03 C795.57,317.44 776.79,324.67 751.12,326.95 C746.38,327.38 780.97,327.72 828.00,327.72 C879.48,327.72 909.08,327.40 902.40,326.91 C889.56,325.99 870.00,322.21 858.55,318.44 C850.17,315.68 837.00,309.47 837.00,308.26 C837.00,305.86 845.70,283.01 846.62,283.01 C847.24,283.00 849.72,284.09 852.12,285.43 C862.41,291.14 878.47,295.74 898.00,298.57 C912.64,300.69 942.23,300.13 951.50,297.57 C969.70,292.53 978.92,283.85 978.98,271.71 C979.04,257.29 965.21,248.92 931.50,242.98 C893.26,236.24 885.32,234.21 872.06,227.73 C862.31,222.96 851.35,213.08 848.51,206.49 C842.09,191.61 842.72,176.68 850.32,163.72 C853.86,157.67 865.35,147.13 872.57,143.30 C881.70,138.45 895.20,134.31 908.00,132.44 C923.08,130.23 951.26,130.90 968.13,133.87 C981.09,136.16 998.18,140.66 1000.44,142.38 C1001.72,143.34 1001.29,145.23 997.37,156.00 C994.86,162.88 992.64,168.67 992.44,168.89 C992.23,169.10 987.88,167.90 982.78,166.21 C950.20,155.47 909.17,155.31 888.30,165.85 C875.24,172.44 870.17,183.62 875.53,194.00 C880.30,203.25 894.37,208.84 926.00,214.05 C953.81,218.63 965.52,221.81 979.77,228.62 C1001.72,239.12 1012.05,257.95 1007.67,279.45 C1005.48,290.20 1001.88,297.10 994.61,304.47 C982.31,316.94 962.47,324.67 937.00,326.89 C930.20,327.49 939.52,327.76 969.75,327.86 L 1012.00 328.00 ZM 289.00 291.00 L 289.00 324.00 L 259.00 324.00 L 259.00 133.88 L 320.25 134.28 C386.46,134.73 386.20,134.71 401.48,140.45 C419.69,147.31 432.10,159.69 438.11,177.00 C439.99,182.42 440.36,185.59 440.35,196.00 C440.33,206.80 439.97,209.59 437.69,216.50 C427.12,248.47 393.30,266.24 343.00,266.24 C324.87,266.24 311.82,264.56 298.36,260.47 C293.88,259.11 289.94,258.00 289.61,258.00 C289.27,258.00 289.00,272.85 289.00,291.00 ZM 459.70 299.53 L 447.32 323.50 L 414.87 324.05 L 419.33 315.78 C421.79,311.22 434.45,287.02 447.48,262.00 C460.51,236.98 480.89,197.94 492.76,175.25 L 514.36 134.00 L 525.71 134.00 C538.73,134.00 542.48,135.12 546.26,140.14 C548.45,143.06 640.84,317.83 642.56,322.31 C643.16,323.85 641.85,324.00 627.36,323.98 L 611.50 323.96 L 598.84 299.23 L 586.19 274.50 L 530.34 274.26 C499.63,274.13 473.96,274.37 473.29,274.79 C472.63,275.22 466.51,286.35 459.70,299.53 ZM 319.50 237.44 C323.90,238.19 334.08,238.84 342.12,238.90 C382.85,239.18 406.41,226.99 411.04,203.25 C413.26,191.86 409.80,180.76 401.70,173.29 C396.07,168.10 392.81,166.42 383.19,163.76 C376.01,161.77 372.62,161.60 332.25,161.24 L 289.00 160.85 L 289.00 229.05 L 291.75 230.10 C297.92,232.45 311.99,236.18 319.50,237.44 ZM 91.50 133.91 C67.30,142.76 47.05,149.97 46.50,149.93 C45.95,149.90 36.28,146.51 25.00,142.39 C6.13,135.52 1.00,132.84 1.00,129.89 C1.00,129.40 2.21,129.00 3.70,129.00 C6.19,129.00 23.55,123.09 61.50,109.32 C69.75,106.32 82.80,101.62 90.50,98.87 C98.20,96.11 108.10,92.55 112.50,90.95 C129.37,84.80 163.08,72.65 176.11,68.02 C190.90,62.76 196.92,60.01 198.94,57.57 C199.66,56.71 200.64,56.00 201.12,56.00 C201.61,56.00 202.00,63.21 202.00,72.03 C202.00,93.34 201.81,93.80 190.85,97.93 C186.26,99.66 180.93,101.69 179.00,102.43 C177.07,103.18 173.25,104.48 170.50,105.32 C167.75,106.16 161.68,108.26 157.00,109.98 C152.32,111.71 145.57,114.18 142.00,115.47 C138.43,116.77 115.70,125.07 91.50,133.91 ZM 122.54 180.94 C83.05,195.27 50.12,207.00 49.37,207.00 C48.26,207.00 48.00,203.67 48.00,189.66 L 48.00 172.31 L 80.25 160.69 C97.99,154.30 123.07,145.22 136.00,140.51 C148.93,135.80 166.72,129.32 175.55,126.10 C192.96,119.77 196.95,117.97 198.95,115.57 C199.66,114.70 200.64,114.00 201.12,114.00 C202.41,114.00 202.21,145.11 200.89,148.88 C200.28,150.63 198.56,152.69 197.07,153.47 C195.57,154.24 162.04,166.60 122.54,180.94 ZM 639.75 51.50 L 634.49 71.50 L 625.25 71.79 C616.92,72.05 616.00,71.90 616.03,70.29 C616.04,69.30 619.99,53.42 624.81,35.00 L 633.57 1.50 L 647.37 1.50 C659.95,1.50 661.29,1.67 662.61,3.47 C663.97,5.35 673.28,33.40 674.48,39.25 C674.79,40.76 675.37,42.00 675.77,41.99 C676.17,41.99 678.42,36.25 680.76,29.24 C683.11,22.23 686.28,13.12 687.80,9.00 L 690.58 1.50 L 703.27 1.50 C714.77,1.50 716.14,1.69 718.02,3.58 C719.55,5.10 722.31,14.28 728.45,38.26 C733.04,56.20 736.54,71.13 736.23,71.44 C735.92,71.75 731.72,72.00 726.90,72.00 L 718.14 72.00 L 716.62 66.75 C715.78,63.86 713.46,55.20 711.46,47.50 C706.25,27.41 704.12,19.79 703.55,19.21 C703.45,19.12 703.38,19.02 703.30,19.00 C702.88,18.93 702.09,21.10 695.99,37.83 L 695.01 40.50 L 688.45 58.50 L 677.18 58.78 C666.01,59.06 665.89,59.04 663.18,56.28 C661.16,54.22 659.04,49.04 654.98,36.26 C651.97,26.78 649.23,19.02 648.90,19.01 C648.57,19.01 647.55,21.81 646.65,25.25 C645.74,28.69 642.63,40.50 639.75,51.50 ZM 361.98 59.00 L 355.57 72.00 L 345.29 72.00 C339.12,72.00 335.00,71.60 335.00,71.00 C335.00,70.46 342.76,54.48 352.24,35.50 L 369.49 1.00 L 380.19 1.00 C389.89,1.00 391.12,1.21 393.34,3.25 C396.17,5.84 429.31,70.36 428.32,71.34 C427.96,71.71 423.21,72.00 417.77,72.00 L 407.87 72.00 L 401.98 59.00 ZM 535.50 65.26 L 532.50 71.50 L 522.25 71.78 C515.69,71.97 512.00,71.70 512.00,71.04 C512.00,70.47 519.76,54.45 529.25,35.43 L 546.50 0.86 L 557.72 1.18 C567.41,1.46 569.21,1.77 570.84,3.50 C573.32,6.14 606.02,70.65 605.26,71.41 C604.93,71.73 600.22,72.00 594.79,72.00 L 584.92 72.00 L 579.08 59.00 L 558.79 59.01 L 538.50 59.03 ZM 487.17 246.15 C486.98,246.62 506.01,247.00 529.45,247.00 L 572.07 247.00 L 567.67 238.75 C565.25,234.21 559.67,223.52 555.27,215.00 C535.02,175.79 529.78,166.00 529.04,166.00 C528.45,166.00 488.92,241.65 487.17,246.15 ZM 84.15 253.00 C65.81,259.60 50.18,265.00 49.40,265.00 C48.25,265.00 48.00,261.88 48.00,247.67 L 48.00 230.34 L 51.25 229.28 C53.04,228.70 69.54,222.78 87.93,216.11 C106.32,209.45 122.20,204.00 123.21,204.00 C126.18,204.00 126.97,208.16 126.38,220.72 C125.74,234.58 124.94,237.21 120.68,239.38 C118.93,240.27 102.49,246.40 84.15,253.00 ZM 479.77 44.38 L 479.50 71.50 L 470.45 71.78 C465.47,71.94 461.09,71.75 460.70,71.37 C460.32,70.98 460.00,58.65 460.00,43.97 L 460.00 17.27 L 446.25 16.59 C438.69,16.21 431.04,15.65 429.25,15.34 L 426.00 14.78 L 426.00 1.00 L 514.00 1.00 L 514.00 7.89 C514.00,8.40 514.00,8.87 514.01,9.31 C514.03,11.54 514.05,12.99 513.37,13.96 C512.00,15.95 507.74,15.94 494.77,16.56 L 480.03 17.27 ZM 327.02 56.00 L 318.98 72.00 L 289.66 72.00 C273.53,72.00 260.03,71.70 259.67,71.33 C259.30,70.97 259.00,54.99 259.00,35.83 L 259.00 1.00 L 280.00 1.00 L 280.00 56.00 ZM 79.00 311.37 C76.53,313.75 49.54,324.21 48.52,323.18 C48.23,322.90 48.00,314.98 48.01,305.58 L 48.02 288.50 L 63.11 283.20 C71.41,280.28 78.94,278.04 79.85,278.21 C81.30,278.49 81.50,280.40 81.50,293.75 C81.50,308.66 81.45,309.01 79.00,311.37 ZM 369.05 43.75 C369.01,44.68 372.11,45.00 381.33,45.00 C388.12,45.00 393.94,44.73 394.27,44.40 C394.60,44.07 394.02,42.16 392.99,40.15 C391.96,38.14 389.01,32.00 386.43,26.50 L 381.74 16.50 L 375.42 29.50 C371.94,36.65 369.07,43.06 369.05,43.75 ZM 546.04 43.75 C546.01,44.69 549.15,45.00 558.50,45.00 C567.87,45.00 570.98,44.69 570.94,43.75 C570.82,41.54 559.54,17.98 558.55,17.90 C557.58,17.81 546.11,41.51 546.04,43.75 Z" fill="rgb(19,1,81)"/>
<path d="M 662.80 3.81 C663.85,5.81 666.80,13.89 669.69,22.70 C672.82,32.22 675.72,40.00 676.14,40.00 C676.57,40.00 677.67,37.86 678.58,35.25 C679.16,33.61 680.58,29.58 682.25,24.83 C681.73,26.35 681.23,27.84 680.76,29.24 C678.42,36.25 676.17,41.99 675.77,41.99 C675.37,42.00 674.79,40.76 674.48,39.25 C673.33,33.63 664.69,7.51 662.80,3.81 ZM 688.80 6.32 L 690.50 1.50 L 690.58 1.50 Z" fill="rgb(101,90,137)"/>
<path d="M 201.12 56.00 C200.64,56.00 199.66,56.71 198.94,57.57 C196.92,60.01 190.90,62.76 176.11,68.02 C171.63,69.61 164.70,72.10 156.85,74.92 C156.34,74.07 147.00,70.77 92.00,50.97 C57.73,38.64 55.60,37.69 51.67,33.01 C48.31,29.03 47.80,25.94 48.19,11.75 L 48.50 0.00 L 1012.00 0.00 L 531.25 0.06 C207.45,0.11 52.99,0.45 52.99,1.13 C52.99,1.13 52.99,1.14 53.00,1.14 C56.29,2.47 130.08,29.24 155.00,38.15 C187.57,49.78 199.44,54.22 200.75,55.26 C200.88,55.36 201.01,55.62 201.12,56.00 ZM 0.00 228.25 L 0.00 328.00 L 0.00 41.67 L 2.75 41.69 C5.11,41.70 59.54,60.99 111.00,80.04 C119.16,83.06 125.92,85.60 126.50,85.87 C121.24,87.77 116.41,89.52 112.50,90.95 C108.10,92.55 98.20,96.11 90.50,98.87 C85.91,100.51 79.43,102.84 73.19,105.09 C77.43,103.40 77.32,103.06 75.89,102.59 C68.42,100.13 11.90,79.45 10.00,78.47 C6.29,76.57 3.00,72.68 1.46,68.34 C0.20,64.82 0.08,65.97 0.04,82.16 C0.00,99.12 0.08,99.79 1.93,99.31 C3.59,98.87 40.78,111.62 45.00,114.08 C45.55,114.39 46.33,114.56 47.03,114.54 C19.07,124.60 5.85,129.00 3.70,129.00 C2.21,129.00 1.00,129.40 1.00,129.89 C1.00,130.21 1.06,130.52 1.19,130.84 C0.04,131.10 0.01,144.57 0.00,228.25 ZM 91.50 133.91 C115.70,125.07 138.43,116.77 142.00,115.47 C145.57,114.18 152.32,111.71 157.00,109.98 C161.68,108.26 167.75,106.16 170.50,105.32 C173.25,104.48 177.07,103.18 179.00,102.43 C180.39,101.89 183.54,100.69 186.91,99.41 C183.65,100.67 180.71,101.84 179.55,102.36 L 176.60 103.67 L 185.55 106.81 C190.47,108.54 196.07,110.76 198.00,111.73 L 201.50 113.50 L 201.54 115.34 C201.42,114.49 201.28,114.00 201.12,114.00 C200.64,114.00 199.66,114.70 198.95,115.57 C196.95,117.97 192.96,119.77 175.55,126.10 C170.99,127.76 164.05,130.29 156.62,133.00 C156.98,132.28 153.02,130.54 142.54,126.78 L 126.86 121.15 L 86.86 135.67 L 46.87 150.20 L 43.74 149.07 C45.35,149.61 46.33,149.92 46.50,149.93 C47.05,149.97 67.30,142.76 91.50,133.91 ZM 2.71 132.67 C4.51,134.12 7.92,135.80 13.74,138.13 C6.64,135.43 4.08,134.12 2.71,132.67 ZM 201.98 77.80 C202.00,76.07 202.00,74.15 202.00,72.03 C202.00,67.08 201.88,62.63 201.68,59.69 C202.08,64.19 202.18,71.36 201.98,77.80 ZM 194.64 96.43 C198.08,94.94 199.92,93.53 200.89,90.45 C200.80,90.85 200.70,91.17 200.60,91.42 C199.62,93.76 198.65,94.75 194.64,96.43 ZM 196.25 153.81 C191.35,155.80 168.34,164.27 141.93,173.88 C169.81,163.72 191.72,155.62 196.25,153.81 ZM 201.87 136.64 C201.84,140.32 201.71,143.18 201.42,145.42 C201.62,143.14 201.77,140.02 201.87,136.64 ZM 200.06 150.52 C199.35,151.91 198.39,152.78 197.14,153.43 C197.13,153.43 197.12,153.44 197.11,153.44 C198.14,152.90 199.26,151.75 200.06,150.52 ZM 55.89 169.47 L 48.00 172.31 L 48.00 172.26 L 55.75 169.52 ZM 59.02 203.74 C53.18,205.79 49.63,207.00 49.37,207.00 C49.61,207.00 53.10,205.81 59.02,203.74 Z" fill="rgb(251,2,75)"/>
<path d="M 0.00 228.25 C0.01,130.68 0.05,128.57 1.86,131.54 C3.51,134.24 6.17,135.47 25.29,142.39 L 46.87 150.20 L 86.86 135.67 L 126.86 121.15 L 142.54 126.78 C154.11,130.94 157.74,132.62 156.37,133.19 C154.42,133.99 69.27,164.74 55.75,169.52 L 48.00 172.26 L 48.00 189.63 C48.00,203.67 48.26,207.00 49.37,207.00 C51.04,207.00 193.22,155.46 197.14,153.43 C201.29,151.28 202.15,146.76 201.80,129.00 L 201.50 113.50 L 198.00 111.73 C196.07,110.76 190.47,108.54 185.55,106.81 L 176.60 103.67 L 179.55 102.36 C181.17,101.64 186.26,99.64 190.85,97.92 C198.15,95.17 199.37,94.36 200.60,91.42 C202.48,86.91 202.61,56.73 200.75,55.26 C199.44,54.22 187.57,49.78 155.00,38.15 C130.08,29.24 56.29,2.47 53.00,1.14 C51.31,0.45 205.69,0.11 531.25,0.06 L 1012.00 0.00 L 1012.00 164.00 L 1012.00 328.00 L 969.75 327.86 C939.52,327.76 930.20,327.49 937.00,326.89 C962.47,324.67 982.31,316.94 994.61,304.47 C1001.88,297.10 1005.48,290.20 1007.67,279.45 C1012.05,257.95 1001.72,239.12 979.77,228.62 C965.52,221.81 953.81,218.63 926.00,214.05 C894.37,208.84 880.30,203.25 875.53,194.00 C870.17,183.62 875.24,172.44 888.30,165.85 C909.17,155.31 950.20,155.47 982.78,166.21 C987.88,167.90 992.23,169.10 992.44,168.89 C992.64,168.67 994.86,162.88 997.37,156.00 C1001.29,145.23 1001.72,143.34 1000.44,142.38 C998.18,140.66 981.09,136.16 968.13,133.87 C951.26,130.90 923.08,130.23 908.00,132.44 C895.20,134.31 881.70,138.45 872.57,143.30 C865.35,147.13 853.86,157.67 850.32,163.72 C842.72,176.68 842.09,191.61 848.51,206.49 C851.35,213.08 862.31,222.96 872.06,227.73 C885.32,234.21 893.26,236.24 931.50,242.98 C965.21,248.92 979.04,257.29 978.98,271.71 C978.92,283.85 969.70,292.53 951.50,297.57 C942.23,300.13 912.64,300.69 898.00,298.57 C878.47,295.74 862.41,291.14 852.12,285.43 C849.72,284.09 847.24,283.00 846.62,283.01 C845.70,283.01 837.00,305.86 837.00,308.26 C837.00,309.47 850.17,315.68 858.55,318.44 C870.00,322.21 889.56,325.99 902.40,326.91 C909.08,327.40 879.48,327.72 828.00,327.72 C780.97,327.72 746.38,327.38 751.12,326.95 C776.79,324.67 795.57,317.44 808.11,305.03 C815.48,297.74 819.29,291.11 821.49,281.77 C826.98,258.51 816.87,239.69 792.67,228.08 C779.93,221.97 768.97,218.97 743.01,214.48 C713.45,209.36 703.90,206.61 696.07,200.94 C690.26,196.73 688.01,192.62 688.00,186.21 C688.00,174.72 696.48,166.40 713.00,161.69 C733.98,155.70 769.71,157.43 795.34,165.67 C801.30,167.59 806.41,168.93 806.69,168.65 C807.84,167.49 815.95,143.72 815.45,142.93 C814.65,141.62 800.75,137.46 789.50,135.17 C760.48,129.24 726.60,129.61 704.63,136.09 C679.18,143.60 662.19,159.85 658.89,179.83 C655.65,199.44 665.02,216.55 684.58,226.72 C698.45,233.94 706.36,236.10 740.15,241.93 C779.72,248.75 793.48,256.71 793.16,272.61 C792.91,284.90 780.74,294.70 761.07,298.43 C750.23,300.48 725.18,300.50 711.13,298.45 C691.89,295.66 671.54,289.37 663.74,283.81 C662.17,282.70 660.70,281.97 660.47,282.20 C660.04,282.62 651.00,307.79 651.00,308.55 C651.00,309.43 662.87,314.90 671.06,317.79 C684.69,322.60 704.14,326.21 722.50,327.33 C725.25,327.50 563.81,327.72 363.75,327.82 L 0.00 328.00 L 0.00 228.25 ZM 79.00 311.37 C81.45,309.01 81.50,308.66 81.50,293.75 C81.50,280.40 81.30,278.49 79.85,278.21 C78.94,278.04 71.41,280.28 63.11,283.20 L 48.02 288.50 L 48.01 305.58 C48.00,314.98 48.23,322.90 48.52,323.18 C49.54,324.21 76.53,313.75 79.00,311.37 ZM 289.00 291.00 C289.00,272.85 289.27,258.00 289.61,258.00 C289.94,258.00 293.88,259.11 298.36,260.47 C311.82,264.56 324.87,266.24 343.00,266.24 C393.30,266.24 427.12,248.47 437.69,216.50 C439.97,209.59 440.33,206.80 440.35,196.00 C440.36,185.59 439.99,182.42 438.11,177.00 C432.10,159.69 419.69,147.31 401.48,140.45 C386.20,134.71 386.46,134.73 320.25,134.28 L 259.00 133.88 L 259.00 228.94 L 259.00 324.00 L 274.00 324.00 L 289.00 324.00 L 289.00 291.00 ZM 459.70 299.53 C466.51,286.35 472.63,275.22 473.29,274.79 C473.96,274.37 499.63,274.13 530.34,274.26 L 586.19 274.50 L 598.84 299.23 L 611.50 323.96 L 627.36 323.98 C641.85,324.00 643.16,323.85 642.56,322.31 C640.84,317.83 548.45,143.06 546.26,140.14 C542.48,135.12 538.73,134.00 525.71,134.00 L 514.36 134.00 L 492.76 175.25 C480.89,197.94 460.51,236.98 447.48,262.00 C434.45,287.02 421.79,311.22 419.33,315.78 L 414.87 324.05 L 431.09 323.78 L 447.32 323.50 L 459.70 299.53 ZM 84.15 253.00 C102.49,246.40 118.93,240.27 120.68,239.38 C124.94,237.21 125.74,234.58 126.38,220.72 C126.97,208.16 126.18,204.00 123.21,204.00 C122.20,204.00 106.32,209.45 87.93,216.11 C69.54,222.78 53.04,228.70 51.25,229.28 L 48.00 230.34 L 48.00 247.67 C48.00,261.88 48.25,265.00 49.40,265.00 C50.18,265.00 65.81,259.60 84.15,253.00 ZM 323.00 64.00 L 327.02 56.00 L 303.51 56.00 L 280.00 56.00 L 280.00 28.50 L 280.00 1.00 L 269.50 1.00 L 259.00 1.00 L 259.00 35.83 C259.00,54.99 259.30,70.97 259.67,71.33 C260.03,71.70 273.53,72.00 289.66,72.00 L 318.98 72.00 L 323.00 64.00 ZM 358.78 65.50 L 361.98 59.00 L 381.98 59.00 L 401.98 59.00 L 404.93 65.50 L 407.87 72.00 L 417.77 72.00 C423.21,72.00 427.96,71.71 428.32,71.34 C429.31,70.36 396.17,5.84 393.34,3.25 C391.12,1.21 389.89,1.00 380.19,1.00 L 369.49 1.00 L 352.24 35.50 C342.76,54.48 335.00,70.46 335.00,71.00 C335.00,71.60 339.12,72.00 345.29,72.00 L 355.57 72.00 L 358.78 65.50 ZM 479.77 44.38 L 480.03 17.27 L 494.77 16.56 C515.33,15.58 514.00,16.18 514.00,7.89 L 514.00 1.00 L 470.00 1.00 L 426.00 1.00 L 426.00 7.89 L 426.00 14.78 L 429.25 15.34 C431.04,15.65 438.69,16.21 446.25,16.59 L 460.00 17.27 L 460.00 43.97 C460.00,58.65 460.32,70.98 460.70,71.37 C461.09,71.75 465.47,71.94 470.45,71.78 L 479.50 71.50 L 479.77 44.38 ZM 535.50 65.26 L 538.50 59.03 L 558.79 59.01 L 579.08 59.00 L 582.00 65.50 L 584.92 72.00 L 594.79 72.00 C600.22,72.00 604.93,71.73 605.26,71.41 C606.02,70.65 573.32,6.14 570.84,3.50 C569.21,1.77 567.41,1.46 557.72,1.18 L 546.50 0.86 L 529.25 35.43 C519.76,54.45 512.00,70.47 512.00,71.04 C512.00,71.70 515.69,71.97 522.25,71.78 L 532.50 71.50 L 535.50 65.26 ZM 639.75 51.50 C642.63,40.50 645.74,28.69 646.65,25.25 C647.55,21.81 648.57,19.01 648.90,19.01 C649.23,19.02 651.97,26.78 654.98,36.26 C659.04,49.04 661.16,54.22 663.18,56.28 C665.89,59.04 666.01,59.06 677.18,58.78 L 688.45 58.50 L 695.01 40.50 C703.34,17.68 702.96,18.62 703.55,19.21 C704.12,19.79 706.25,27.41 711.46,47.50 C713.46,55.20 715.78,63.86 716.62,66.75 L 718.14 72.00 L 726.90 72.00 C731.72,72.00 735.92,71.75 736.23,71.44 C736.54,71.13 733.04,56.20 728.45,38.26 C722.31,14.28 719.55,5.10 718.02,3.58 C716.14,1.69 714.77,1.50 703.22,1.50 L 690.50 1.50 L 685.37 16.00 C682.55,23.98 679.50,32.64 678.58,35.25 C677.67,37.86 676.57,40.00 676.14,40.00 C675.72,40.00 672.82,32.22 669.69,22.70 C666.57,13.19 663.37,4.53 662.59,3.45 C661.30,1.68 659.90,1.50 647.37,1.50 L 633.57 1.50 L 624.81 35.00 C619.99,53.42 616.04,69.30 616.03,70.29 C616.00,71.90 616.92,72.05 625.25,71.79 L 634.49 71.50 L 639.75 51.50 ZM 45.00 114.08 C40.78,111.62 3.59,98.87 1.93,99.31 C0.08,99.79 0.00,99.12 0.04,82.16 C0.08,65.97 0.20,64.82 1.46,68.34 C3.00,72.68 6.29,76.57 10.00,78.47 C11.90,79.45 68.42,100.13 75.89,102.59 C78.05,103.30 77.19,103.72 62.89,108.93 C55.53,111.61 48.83,114.06 48.00,114.38 C47.17,114.69 45.83,114.55 45.00,114.08 ZM 111.00 80.04 C59.54,60.99 5.11,41.70 2.75,41.69 L 0.00 41.67 L 0.00 20.83 L 0.00 0.00 L 24.25 -0.00 L 48.50 -0.00 L 48.19 11.75 C47.80,25.94 48.31,29.03 51.67,33.01 C55.60,37.69 57.73,38.64 92.00,50.97 C162.55,76.37 157.97,74.62 156.00,75.36 C150.50,77.43 126.56,85.98 126.53,85.89 C126.52,85.83 119.53,83.20 111.00,80.04 ZM 319.50 237.44 C311.99,236.18 297.92,232.45 291.75,230.10 L 289.00 229.05 L 289.00 194.95 L 289.00 160.85 L 332.25 161.24 C372.62,161.60 376.01,161.77 383.19,163.76 C392.81,166.42 396.07,168.10 401.70,173.29 C409.80,180.76 413.26,191.86 411.04,203.25 C406.41,226.99 382.85,239.18 342.12,238.90 C334.08,238.84 323.90,238.19 319.50,237.44 ZM 487.17 246.15 C488.92,241.65 528.45,166.00 529.04,166.00 C529.78,166.00 535.02,175.79 555.27,215.00 C559.67,223.52 565.25,234.21 567.67,238.75 L 572.07 247.00 L 529.45 247.00 C506.01,247.00 486.98,246.62 487.17,246.15 ZM 369.05 43.75 C369.07,43.06 371.94,36.65 375.42,29.50 L 381.74 16.50 L 386.43 26.50 C389.01,32.00 391.96,38.14 392.99,40.15 C394.02,42.16 394.60,44.07 394.27,44.40 C393.94,44.73 388.12,45.00 381.33,45.00 C372.11,45.00 369.01,44.68 369.05,43.75 ZM 546.04 43.75 C546.11,41.51 557.58,17.81 558.55,17.90 C559.54,17.98 570.82,41.54 570.94,43.75 C570.98,44.69 567.87,45.00 558.50,45.00 C549.15,45.00 546.01,44.69 546.04,43.75 Z" fill="rgb(254,254,254)"/>
</g>
</svg>